<?xml version="1.0" standalone="no"?><svg xmlns="http://www.w3.org/2000/svg" viewBox="0 0 1440 320"><path fill="#e83e8c" fill-opacity="1" d="M0,160L21.8,144C43.6,128,87,96,131,85.3C174.5,75,218,85,262,117.3C305.5,149,349,203,393,208C436.4,213,480,171,524,181.3C567.3,192,611,256,655,240C698.2,224,742,128,785,96C829.1,64,873,96,916,117.3C960,139,1004,149,1047,160C1090.9,171,1135,181,1178,186.7C1221.8,192,1265,192,1309,208C1352.7,224,1396,256,1418,272L1440,288L1440,0L1418.2,0C1396.4,0,1353,0,1309,0C1265.5,0,1222,0,1178,0C1134.5,0,1091,0,1047,0C1003.6,0,960,0,916,0C872.7,0,829,0,785,0C741.8,0,698,0,655,0C610.9,0,567,0,524,0C480,0,436,0,393,0C349.1,0,305,0,262,0C218.2,0,175,0,131,0C87.3,0,44,0,22,0L0,0Z"></path></svg>