<svg 
    xmlns="http://www.w3.org/2000/svg" viewBox="0 0 224.88 117.85">
    <polygon points="131.93 0 121.33 10.6 139.59 28.86 145.31 34.58 148.88 38.14 152.35 41.61 131.93 62.04 128.45 58.56 145.4 41.61 141.84 38.05 121.33 58.56 131.93 69.16 155.91 45.17 155.91 45.17 159.47 41.61 159.47 41.61 155.91 38.05 152.44 34.58 152.44 34.58 128.45 10.6 131.93 7.12 162.94 38.14 166.51 34.58 131.93 0"/>
    <polygon points="92.97 0 103.57 10.6 87.14 27.02 83.58 23.46 96.45 10.6 92.97 7.12 68 32.1 78.55 32.1 78.55 37.13 68.07 37.13 92.97 62.04 94.71 60.3 96.45 58.56 83.58 45.7 87.14 42.13 100.01 55 100.01 55 103.57 58.56 92.97 69.16 58.39 34.58 92.97 0"/>
    <path d="M224,164.07l-5.72-14.26h3.43l3.7,10,3.7-10h3.36l-5.73,14.26Zm-19-3.33a4.2,4.2,0,0,0,2.22.6,4.17,4.17,0,0,0,3.72-2.2,4.71,4.71,0,0,0,.53-2.21v0a4.42,4.42,0,0,    0-1.22-3.15,4,4,0,0,0-3.07-1.29,4.1,4.1,0,0,0-2.2.59,4,4,0,0,0-1.52,1.6,4.68,4.68,0,0,0-.53,2.21v0a4.67,4.67,0,0,0,.54,2.22A4.28,4.28,0,0,0,205,160.74Zm5.19,2.89a8.17,8.17,0,0,1-6,0,7.21,7.21,0,0,1-2.39-1.55,7.35,7.35,0,0,1-2.1-5.16v0a7.2,7.2,0,0,1,.57-2.84,7,7,0,0,1,3.95-3.9,8,8,0,0,1,3-.58,7.75,7.75,0,0,1,3.86,1,7,7,0,0,1,2.68,2.64,7.2,7.2,0,0,1,1,3.66v0a7.24,7.24,0,0,1-.57,2.84,7.5,7.5,0,0,1-1.56,2.33A7.3,7.3,0,0,1,210.18,163.63Zm-28.74.34V149.81h2.87l6.64,8.72v-8.72H194V164h-2.64l-6.86-9v9ZM167,158h3.76l-1.88-4.59ZM161.37,164l6.07-14.26h2.86L176.38,164h-3.26l-1.3-3.18h-6L164.55,164Zm-10.67-7h2.47a2.54,2.54,0,0,0,1.81-.61,2,2,0,0,0,.66-1.54v0a1.94,1.94,0,0,0-.67-1.59,2.85,2.85,0,0,0-1.86-.56H150.7Zm-3.11,7V149.81h5.79a5.63,5.63,0,0,1,4,1.35,4.6,4.6,0,0,1,1.46,3.55v0a5,5,0,0,1-.45,2.15,4.14,4.14,0,0,1-1.22,1.57,5.59,5.59,0,0,1-1.82.93,7.63,7.63,0,0,1-2.24.32H150.7V164Zm-16.44,0V149.81h10.68v2.77h-7.59v2.88h6.68v2.76h-6.68v3h7.69V164Zm-12.7,0V152.68h-4.3v-2.87h11.72v2.87h-4.31V164Zm-13.78.2a9.28,9.28,0,0,1-3.2-.58,8.61,8.61,0,0,1-2.8-1.68l1.84-2.21a6.61,6.61,0,0,0,4.22,1.72,2.77,2.77,0,0,0,1.5-.35,1.12,1.12,0,0,0,.54-1v0a1.09,1.09,0,0,0-.21-.69,2.2,2.2,0,0,0-.84-.55,12.18,12.18,0,0,0-1.8-.57c-.44-.11-.83-.22-1.16-.32a10.53,10.53,0,0,1-1-.37,5.56,5.56,0,0,1-.88-.43,4.43,4.43,0,0,1-.68-.55,2.45,2.45,0,0,1-.53-.69,3.64,3.64,0,0,1-.31-.88,4.58,4.58,0,0,1-.12-1.08v0a3.83,3.83,0,0,1,1.39-3.09,5.28,5.28,0,0,1,3.57-1.18,8.12,8.12,0,0,1,5.25,1.8l-1.62,2.35a6.59,6.59,0,0,0-3.67-1.4,2.28,2.28,0,0,0-1.35.34,1.06,1.06,0,0,0-.48.89v0a1.15,1.15,0,0,0,.6,1,11.18,11.18,0,0,0,2.46.83,13.11,13.11,0,0,1,1.92.63,5.78,5.78,0,0,1,1.39.84,2.94,2.94,0,0,1,.89,1.18,4.11,4.11,0,0,1,.28,1.59v0a3.91,3.91,0,0,1-1.42,3.22A5.76,5.76,0,0,1,104.67,164.17Zm-21.89,0a9.28,9.28,0,0,1-3.2-.58,8.61,8.61,0,0,1-2.8-1.68l1.84-2.21a6.61,6.61,0,0,0,4.22,1.72,2.77,2.77,0,0,0,1.5-.35,1.12,1.12,0,0,0,.54-1v0a1.09,1.09,0,0,0-.21-.69,2.2,2.2,0,0,0-.84-.55,12.18,12.18,0,0,0-1.8-.57c-.44-.11-.83-.22-1.16-.32a10.53,10.53,0,0,1-1-.37,5.56,5.56,0,0,1-.88-.43,5,5,0,0,1-.68-.55,2.45,2.45,0,0,1-.53-.69,3.64,3.64,0,0,1-.31-.88,4.58,4.58,0,0,1-.12-1.08v0a3.83,3.83,0,0,1,1.39-3.09,5.28,5.28,0,0,1,3.57-1.18,8.12,8.12,0,0,1,5.25,1.8l-1.62,2.35a6.59,6.59,0,0,0-3.67-1.4,2.28,2.28,0,0,0-1.35.34,1.06,1.06,0,0,0-.48.89v0a1.15,1.15,0,0,0,.6,1,11.18,11.18,0,0,0,2.46.83,13.11,13.11,0,0,1,1.92.63,5.78,5.78,0,0,1,1.39.84,2.94,2.94,0,0,1,.89,1.18,4.1,4.1,0,0,1,.29,1.59v0A3.91,3.91,0,0,1,86.55,163,5.76,5.76,0,0,1,82.78,164.17ZM58.89,164V149.81h2.87l6.64,8.72v-8.72h3.07V164H68.82L62,155v9ZM44.4,158h3.76l-1.88-4.59ZM38.82,164l6.07-14.26h2.86L53.83,164H50.57l-1.3-3.18h-6L42,164Zm-10.31.1-5.72-14.26h3.43l3.7,10,3.7-10H37l-5.72,14.26Zm-21-.1V149.81H18.23v2.77H10.65v2.88h6.67v2.76H10.65v3h7.69V164Z" transform="translate(-7.56 -61.08)"/>
    <path d="M211.92,171.46h3.27a3.6,3.6,0,0,1,1.23.2,2.47,2.47,0,0,1,.89.54,2.05,2.05,0,0,1,.45.7,2.46,2.46,0,0,1,.16.88v0a2.55,2.55,0,0,1-.13.81,2,2,0,0,1-.37.64,1.93,1.93,0,0,1-.55.47,2.6,2.6,0,0,1-.7.3l2,2.78h-1.52l-1.81-2.56H213.2v2.56h-1.28Zm3.17,3.64a1.73,1.73,0,0,0,1.11-.33,1.1,1.1,0,0,0,.41-.9v0a1.09,1.09,0,0,0-.4-.91,1.79,1.79,0,0,0-1.13-.31H213.2v2.47Zm-14.55-3.64H206v1.17h-4.15v1.88h3.68v1.17h-3.68v1.95H206v1.17h-5.48Zm-11.38,0h5.43v1.17h-4.15v1.88h3.68v1.17h-3.68v1.95h4.2v1.17h-5.48Zm-12.64,0h1.2l3.92,5.08v-5.08h1.28v7.34h-1.08l-4-5.22v5.22h-1.28Zm-7.6,0h1.27v7.34h-1.27Zm-9.17,7.46a4.05,4.05,0,0,1-1.56-.28,3.56,3.56,0,0,1-2-2,4,4,0,0,1-.27-1.49v0a4,4,0,0,1,.28-1.46,3.71,3.71,0,0,1,2-2,3.83,3.83,0,0,1,1.53-.3,4.65,4.65,0,0,1,.87.07,3.89,3.89,0,0,1,.73.19,3.68,3.68,0,0,1,.63.31,3.88,3.88,0,0,1,.58.42l-.81,1a4.46,4.46,0,0,0-.43-.33,2.25,2.25,0,0,0-.46-.24,2.74,2.74,0,0,0-.53-.16,3.24,3.24,0,0,0-.64-.06,2.11,2.11,0,0,0-.93.21,2.5,2.5,0,0,0-.76.56,2.67,2.67,0,0,0-.5.83,2.78,2.78,0,0,0-.19,1v0a3,3,0,0,0,.18,1.05,2.37,2.37,0,0,0,.51.82,2.26,2.26,0,0,0,.78.55,2.61,2.61,0,0,0,1,.2,3.1,3.1,0,0,0,1-.15,2.68,2.68,0,0,0,.79-.41v-1.38h-1.88V174.7h3.13v3.08a5.59,5.59,0,0,1-.61.44,4.75,4.75,0,0,1-.71.37,4.12,4.12,0,0,1-.82.24A4.56,4.56,0,0,1,159.75,178.92Zm-16.12-7.46h1.19l3.92,5.08v-5.08H150v7.34h-1.08l-4-5.22v5.22h-1.28Zm-11.38,0h5.43v1.17h-4.15v1.88h3.68v1.17h-3.68v1.95h4.2v1.17h-5.48Zm-15.1,0h1.28v3.69l3.49-3.69h1.58l-3,3.16,3.18,4.18h-1.56l-2.5-3.3-1.14,1.17v2.13h-1.28Zm-8.68,7.46a3.67,3.67,0,0,1-1.49-.29,3.73,3.73,0,0,1-1.18-.8,3.77,3.77,0,0,1-.78-1.2,3.65,3.65,0,0,1-.29-1.48v0a3.79,3.79,0,0,1,1.07-2.68,3.54,3.54,0,0,1,1.19-.81,3.87,3.87,0,0,1,1.53-.3,5.17,5.17,0,0,1,.92.08,4,4,0,0,1,.76.24,3.63,3.63,0,0,1,.64.36,4.89,4.89,0,0,1,.56.46l-.83,1a4.45,4.45,0,0,0-.94-.66,2.5,2.5,0,0,0-1.12-.25,2.25,2.25,0,0,0-1,.21,2.47,2.47,0,0,0-.77.55,2.62,2.62,0,0,0-.5.82,2.83,2.83,0,0,0-.18,1v0a2.83,2.83,0,0,0,.18,1,2.71,2.71,0,0,0,.5.84,2.67,2.67,0,0,0,.77.56,2.4,2.4,0,0,0,1,.2,2.48,2.48,0,0,0,1.16-.26,4.48,4.48,0,0,0,1-.69l.83.83a4.19,4.19,0,0,1-.59.54,3.54,3.54,0,0,1-.67.41,2.86,2.86,0,0,1-.78.26A4.55,4.55,0,0,1,108.47,178.92ZM95,171.41h1.19l3.23,7.39H98.08L97.33,177H93.86l-.75,1.77H91.79Zm1.84,4.47L95.59,173l-1.25,2.93Zm-13.79-3.22H80.74v-1.2h6v1.2H84.37v6.14h-1.3ZM72.78,178.9a4.69,4.69,0,0,1-1.63-.28,4.61,4.61,0,0,1-1.43-.89l.77-.92a4.4,4.4,0,0,0,1.08.7,2.92,2.92,0,0,0,1.24.25,1.6,1.6,0,0,0,1-.25.8.8,0,0,0,.35-.67v0a.78.78,0,0,0-.07-.35.74.74,0,0,0-.25-.29,1.79,1.79,0,0,0-.5-.25,6.07,6.07,0,0,0-.84-.23,9.54,9.54,0,0,1-1-.31,3,3,0,0,1-.76-.42,1.72,1.72,0,0,1-.48-.6,2.24,2.24,0,0,1-.16-.86v0a1.92,1.92,0,0,1,.19-.87,2.09,2.09,0,0,1,.51-.67,2.4,2.4,0,0,1,.79-.43,3,3,0,0,1,1-.16,4,4,0,0,1,2.66.92l-.69,1a4.82,4.82,0,0,0-1-.56,2.9,2.9,0,0,0-1-.19,1.39,1.39,0,0,0-.89.25.8.8,0,0,0-.31.62v0a.84.84,0,0,0,.07.37.76.76,0,0,0,.27.3,2.32,2.32,0,0,0,.54.24,7.77,7.77,0,0,0,.87.24,8.76,8.76,0,0,1,1,.33,2.62,2.62,0,0,1,.74.43,1.89,1.89,0,0,1,.45.6,2,2,0,0,1,.15.79v0a2.22,2.22,0,0,1-.19.92,2,2,0,0,1-.54.7,2.37,2.37,0,0,1-.82.43A3.94,3.94,0,0,1,72.78,178.9Zm-16.57-7.44h1.28v6.17h3.86v1.17H56.21Zm-10.84,0h1.27v6.17H50.5v1.17H45.37Zm-9.29,7.45a3.8,3.8,0,0,1-1.29-.2,2.67,2.67,0,0,1-1-.61,2.59,2.59,0,0,1-.63-1,3.94,3.94,0,0,1-.22-1.39v-4.23h1.28v4.17a2.24,2.24,0,0,0,.49,1.57,2.05,2.05,0,0,0,2.73,0,2.15,2.15,0,0,0,.5-1.53v-4.23h1.27v4.16a4.19,4.19,0,0,1-.22,1.44,2.8,2.8,0,0,1-.63,1,2.64,2.64,0,0,1-1,.62A3.78,3.78,0,0,1,36.08,178.91Zm-14.24-7.45h5.45v1.17H23.12v2h3.7v1.16h-3.7v3H21.84Z" transform="translate(-7.56 -61.08)"/>
</svg>
